<svg width="1056" height="256" viewBox="0 0 1056 256" fill="none" xmlns="http://www.w3.org/2000/svg">
<path d="M69.12 94.15L28.5 128L69.12 161.85C69.9505 162.515 70.64 163.339 71.1483 164.273C71.6565 165.208 71.9733 166.234 72.0801 167.292C72.1868 168.351 72.0815 169.42 71.7701 170.437C71.4587 171.454 70.9476 172.399 70.2667 173.216C69.5857 174.034 68.7486 174.707 67.8043 175.197C66.8601 175.687 65.8276 175.983 64.7673 176.069C63.707 176.155 62.6402 176.029 61.6293 175.698C60.6185 175.366 59.6838 174.837 58.88 174.14L10.88 134.14C9.97936 133.389 9.25474 132.45 8.75747 131.388C8.2602 130.326 8.00244 129.168 8.00244 127.995C8.00244 126.822 8.2602 125.664 8.75747 124.602C9.25474 123.54 9.97936 122.601 10.88 121.85L58.88 81.85C60.5111 80.4921 62.6148 79.8378 64.7284 80.0309C66.8419 80.2241 68.7921 81.2489 70.15 82.88C71.508 84.5111 72.1623 86.6148 71.9691 88.7283C71.776 90.8419 70.7511 92.7921 69.12 94.15ZM1045.12 121.85L997.12 81.85C996.312 81.1776 995.38 80.6709 994.377 80.3588C993.373 80.0467 992.318 79.9353 991.272 80.0309C990.225 80.1266 989.208 80.4274 988.278 80.9163C987.347 81.4051 986.522 82.0724 985.85 82.88C984.492 84.5111 983.838 86.6148 984.031 88.7283C984.224 90.8419 985.249 92.7921 986.88 94.15L1027.5 128L986.88 161.85C986.05 162.515 985.36 163.339 984.852 164.273C984.344 165.208 984.027 166.234 983.92 167.292C983.813 168.351 983.919 169.42 984.23 170.437C984.541 171.454 985.052 172.399 985.733 173.216C986.414 174.034 987.251 174.707 988.196 175.197C989.14 175.687 990.173 175.983 991.233 176.069C992.293 176.155 993.36 176.029 994.371 175.698C995.382 175.366 996.316 174.837 997.12 174.14L1045.12 134.14C1046.02 133.389 1046.75 132.45 1047.24 131.388C1047.74 130.326 1048 129.168 1048 127.995C1048 126.822 1047.74 125.664 1047.24 124.602C1046.75 123.54 1046.02 122.601 1045.12 121.85ZM962.73 32.48C961.743 32.1215 960.694 31.961 959.644 32.0077C958.595 32.0543 957.565 32.3073 956.613 32.7521C955.661 33.1969 954.806 33.8248 954.097 34.6C953.388 35.3752 952.839 36.2825 952.48 37.27L888.48 213.27C888.12 214.258 887.958 215.308 888.004 216.358C888.05 217.409 888.303 218.44 888.748 219.393C889.193 220.346 889.821 221.202 890.597 221.912C891.373 222.622 892.281 223.172 893.27 223.53C894.146 223.842 895.07 224 896 224C897.643 224 899.246 223.494 900.591 222.551C901.937 221.609 902.959 220.274 903.52 218.73L967.52 42.73C967.879 41.7425 968.039 40.694 967.992 39.6444C967.946 38.5949 967.693 37.5648 967.248 36.6129C966.803 35.6611 966.175 34.8063 965.4 34.0971C964.625 33.388 963.718 32.8385 962.73 32.48Z" fill="#8067F0"/>
<path d="M135.24 113.24L129 170H118.8L129 81.8L162.6 142.64L196.2 81.8L206.4 170H196.2L189.96 113.24L162.6 162.2L135.24 113.24ZM220.148 92C220.148 90.16 220.788 88.6 222.068 87.32C223.428 86.04 224.988 85.4 226.748 85.4C228.588 85.4 230.148 86.04 231.428 87.32C232.708 88.6 233.348 90.16 233.348 92C233.348 93.76 232.708 95.32 231.428 96.68C230.148 97.96 228.588 98.6 226.748 98.6C224.988 98.6 223.428 97.96 222.068 96.68C220.788 95.32 220.148 93.76 220.148 92ZM221.948 114.8H231.548V170H221.948V114.8ZM255.64 142.4C255.64 146.24 256.44 149.64 258.04 152.6C259.72 155.56 261.96 157.92 264.76 159.68C267.64 161.36 270.88 162.2 274.48 162.2C277.44 162.2 280.2 161.76 282.76 160.88C285.4 159.92 287.68 158.68 289.6 157.16C291.52 155.56 292.88 153.88 293.68 152.12V164.12C291.76 166.36 289 168.12 285.4 169.4C281.88 170.6 278.24 171.2 274.48 171.2C269.12 171.2 264.28 169.96 259.96 167.48C255.64 165 252.2 161.6 249.64 157.28C247.16 152.88 245.92 147.92 245.92 142.4C245.92 136.8 247.16 131.84 249.64 127.52C252.2 123.2 255.64 119.8 259.96 117.32C264.28 114.84 269.12 113.6 274.48 113.6C278.24 113.6 281.88 114.24 285.4 115.52C289 116.72 291.76 118.44 293.68 120.68V132.68C292.88 130.84 291.52 129.16 289.6 127.64C287.68 126.12 285.4 124.92 282.76 124.04C280.2 123.08 277.44 122.6 274.48 122.6C270.88 122.6 267.64 123.44 264.76 125.12C261.96 126.8 259.72 129.16 258.04 132.2C256.44 135.16 255.64 138.56 255.64 142.4ZM318.225 76.4V170H308.625V76.4H318.225ZM344.025 136.4C344.025 131.84 343.025 128.4 341.025 126.08C339.105 123.76 336.185 122.6 332.265 122.6C329.465 122.6 326.985 123.2 324.825 124.4C322.745 125.6 321.105 127.24 319.905 129.32C318.785 131.4 318.225 133.76 318.225 136.4H315.105C315.105 132 315.945 128.12 317.625 124.76C319.305 121.32 321.585 118.6 324.465 116.6C327.425 114.6 330.825 113.6 334.665 113.6C338.505 113.6 341.825 114.4 344.625 116C347.505 117.6 349.705 120 351.225 123.2C352.825 126.4 353.625 130.4 353.625 135.2V170H344.025V136.4ZM393.032 171.2C387.912 171.2 383.352 170 379.352 167.6C375.432 165.12 372.352 161.72 370.112 157.4C367.952 153.08 366.872 148.08 366.872 142.4C366.872 136.64 367.992 131.6 370.232 127.28C372.552 122.96 375.752 119.6 379.832 117.2C383.992 114.8 388.792 113.6 394.232 113.6C399.672 113.6 404.312 114.76 408.152 117.08C412.072 119.32 415.072 122.56 417.152 126.8C419.232 131.04 420.272 136.08 420.272 141.92C420.272 142.48 420.232 143.08 420.152 143.72C420.152 144.28 420.152 144.64 420.152 144.8H372.992V136.64H412.592L408.752 142.16C408.992 141.76 409.232 141.16 409.472 140.36C409.712 139.48 409.832 138.76 409.832 138.2C409.832 134.92 409.152 132.08 407.792 129.68C406.512 127.28 404.712 125.4 402.392 124.04C400.072 122.68 397.352 122 394.232 122C390.552 122 387.392 122.8 384.752 124.4C382.192 125.92 380.192 128.16 378.752 131.12C377.392 134 376.672 137.56 376.592 141.8C376.592 146.12 377.272 149.8 378.632 152.84C379.992 155.88 381.992 158.2 384.632 159.8C387.272 161.4 390.472 162.2 394.232 162.2C397.992 162.2 401.312 161.4 404.192 159.8C407.072 158.12 409.512 155.6 411.512 152.24L419.312 157.16C416.432 161.8 412.792 165.32 408.392 167.72C404.072 170.04 398.952 171.2 393.032 171.2ZM433.43 76.4H443.03V170H433.43V76.4ZM473.326 113.24L467.086 170H456.886L467.086 81.8L500.686 142.64L534.286 81.8L544.486 170H534.286L528.046 113.24L500.686 162.2L473.326 113.24ZM579.594 171.2C574.474 171.2 569.914 170 565.914 167.6C561.994 165.12 558.914 161.72 556.674 157.4C554.514 153.08 553.434 148.08 553.434 142.4C553.434 136.64 554.554 131.6 556.794 127.28C559.114 122.96 562.314 119.6 566.394 117.2C570.554 114.8 575.354 113.6 580.794 113.6C586.234 113.6 590.874 114.76 594.714 117.08C598.634 119.32 601.634 122.56 603.714 126.8C605.794 131.04 606.834 136.08 606.834 141.92C606.834 142.48 606.794 143.08 606.714 143.72C606.714 144.28 606.714 144.64 606.714 144.8H559.554V136.64H599.154L595.314 142.16C595.554 141.76 595.794 141.16 596.034 140.36C596.274 139.48 596.394 138.76 596.394 138.2C596.394 134.92 595.714 132.08 594.354 129.68C593.074 127.28 591.274 125.4 588.954 124.04C586.634 122.68 583.914 122 580.794 122C577.114 122 573.954 122.8 571.314 124.4C568.754 125.92 566.754 128.16 565.314 131.12C563.954 134 563.234 137.56 563.154 141.8C563.154 146.12 563.834 149.8 565.194 152.84C566.554 155.88 568.554 158.2 571.194 159.8C573.834 161.4 577.034 162.2 580.794 162.2C584.554 162.2 587.874 161.4 590.754 159.8C593.634 158.12 596.074 155.6 598.074 152.24L605.874 157.16C602.994 161.8 599.354 165.32 594.954 167.72C590.634 170.04 585.514 171.2 579.594 171.2ZM655.392 136.4C655.392 131.84 654.392 128.4 652.392 126.08C650.392 123.76 647.472 122.6 643.632 122.6C640.832 122.6 638.352 123.2 636.192 124.4C634.112 125.52 632.472 127.12 631.272 129.2C630.152 131.28 629.592 133.68 629.592 136.4V170H619.992V114.8H629.592V123.44C631.432 120.08 633.712 117.6 636.432 116C639.232 114.4 642.432 113.6 646.032 113.6C651.872 113.6 656.472 115.56 659.832 119.48C663.272 123.32 664.992 128.56 664.992 135.2V170H655.392V136.4ZM724.439 76.4H734.039V170H724.439V76.4ZM678.239 142.4C678.239 136.4 679.479 131.28 681.959 127.04C684.439 122.72 687.759 119.4 691.919 117.08C696.079 114.76 700.639 113.6 705.599 113.6C710.239 113.6 714.279 114.76 717.719 117.08C721.159 119.4 723.839 122.72 725.759 127.04C727.759 131.28 728.759 136.4 728.759 142.4C728.759 148.32 727.759 153.44 725.759 157.76C723.839 162.08 721.159 165.4 717.719 167.72C714.279 170.04 710.239 171.2 705.599 171.2C700.639 171.2 696.079 170.04 691.919 167.72C687.759 165.4 684.439 162.08 681.959 157.76C679.479 153.44 678.239 148.32 678.239 142.4ZM687.959 142.4C687.959 146.64 688.799 150.24 690.479 153.2C692.239 156.16 694.559 158.4 697.439 159.92C700.319 161.44 703.439 162.2 706.799 162.2C709.599 162.2 712.359 161.44 715.079 159.92C717.799 158.4 720.039 156.16 721.799 153.2C723.559 150.24 724.439 146.64 724.439 142.4C724.439 138.16 723.559 134.56 721.799 131.6C720.039 128.64 717.799 126.4 715.079 124.88C712.359 123.36 709.599 122.6 706.799 122.6C703.439 122.6 700.319 123.36 697.439 124.88C694.559 126.4 692.239 128.64 690.479 131.6C688.799 134.56 687.959 138.16 687.959 142.4ZM772.837 171.2C767.717 171.2 763.157 170 759.157 167.6C755.237 165.12 752.157 161.72 749.917 157.4C747.757 153.08 746.677 148.08 746.677 142.4C746.677 136.64 747.797 131.6 750.037 127.28C752.357 122.96 755.557 119.6 759.637 117.2C763.797 114.8 768.597 113.6 774.037 113.6C779.477 113.6 784.117 114.76 787.957 117.08C791.877 119.32 794.877 122.56 796.957 126.8C799.037 131.04 800.077 136.08 800.077 141.92C800.077 142.48 800.037 143.08 799.957 143.72C799.957 144.28 799.957 144.64 799.957 144.8H752.797V136.64H792.397L788.557 142.16C788.797 141.76 789.037 141.16 789.277 140.36C789.517 139.48 789.637 138.76 789.637 138.2C789.637 134.92 788.957 132.08 787.597 129.68C786.317 127.28 784.517 125.4 782.197 124.04C779.877 122.68 777.157 122 774.037 122C770.357 122 767.197 122.8 764.557 124.4C761.997 125.92 759.997 128.16 758.557 131.12C757.197 134 756.477 137.56 756.397 141.8C756.397 146.12 757.077 149.8 758.437 152.84C759.797 155.88 761.797 158.2 764.437 159.8C767.077 161.4 770.277 162.2 774.037 162.2C777.797 162.2 781.117 161.4 783.997 159.8C786.877 158.12 789.317 155.6 791.317 152.24L799.117 157.16C796.237 161.8 792.597 165.32 788.197 167.72C783.877 170.04 778.757 171.2 772.837 171.2ZM815.514 153.08C816.634 154.76 817.914 156.32 819.354 157.76C820.794 159.2 822.434 160.36 824.274 161.24C826.194 162.04 828.274 162.44 830.514 162.44C833.234 162.44 835.354 161.84 836.874 160.64C838.474 159.36 839.274 157.64 839.274 155.48C839.274 153.56 838.634 151.96 837.354 150.68C836.154 149.32 834.594 148.2 832.674 147.32C830.754 146.36 828.714 145.48 826.554 144.68C824.154 143.72 821.714 142.6 819.234 141.32C816.834 139.96 814.794 138.24 813.114 136.16C811.514 134 810.714 131.32 810.714 128.12C810.714 124.84 811.554 122.12 813.234 119.96C814.994 117.8 817.234 116.2 819.954 115.16C822.754 114.12 825.634 113.6 828.594 113.6C831.554 113.6 834.314 114.08 836.874 115.04C839.514 116 841.834 117.28 843.834 118.88C845.834 120.48 847.394 122.32 848.514 124.4L840.834 129.32C839.314 127.24 837.394 125.52 835.074 124.16C832.834 122.8 830.274 122.12 827.394 122.12C825.394 122.12 823.674 122.56 822.234 123.44C820.794 124.32 820.074 125.68 820.074 127.52C820.074 128.96 820.634 130.24 821.754 131.36C822.874 132.48 824.314 133.48 826.074 134.36C827.834 135.24 829.674 136.08 831.594 136.88C834.794 138.16 837.714 139.56 840.354 141.08C842.994 142.52 845.074 144.28 846.594 146.36C848.194 148.44 848.994 151.12 848.994 154.4C848.994 159.2 847.234 163.2 843.714 166.4C840.274 169.6 835.714 171.2 830.034 171.2C826.354 171.2 823.034 170.56 820.074 169.28C817.114 167.92 814.594 166.2 812.514 164.12C810.514 162.04 808.994 159.92 807.954 157.76L815.514 153.08Z" fill="#F75023"/>
</svg>
