<svg xmlns="http://www.w3.org/2000/svg" width="256.484" height="256.434"><path d="M253.626 127.135A121.83 121.83 0 11131.79 5.325a121.82 121.82 0 01121.836 121.81" fill="#e21b23"/><path d="M256.484 128.23A128.242 128.242 0 11128.246 0a128.228 128.228 0 01128.238 128.23" fill="#e21b23"/><path d="M232.3 131.673H23.72c-5.182 0-6.026 5.056-5.81 7.556a110.76 110.76 0 00220.646.75c.234-2.76-.276-8.31-6.252-8.31" fill="#ea6c51"/><path fill="#fff" d="M155.962 90.994l54.72-45.476-41.222-13.506-39.074 55.422 25.576 3.56m-28.944-4.18l33.808-54.727-39.19.292-17.57 58.74 22.952-4.31M101 94.74l10.38-56.124-32.338 12.84 4.372 54.235L101 94.75m-17.92 15.52L72.514 59.76l-22.64 21.832 22.25 43.87 10.955-15.194m-11.83 17L48.37 94.304l-9.595 22.5L68.01 141.46l3.243-14.192m-2.107 17.878L40.06 123.49l-1.747 22.04 32.146 12.722-1.32-13.106m2.48 15.004l-31.04-8.56 5.65 18.797 30.68.185-5.3-10.423m6.02 11.14l-28.89 3.47 11.16 13.81 25.72-10.38-8-6.91"/><path d="M119.72 148.2l58.08-38.514a62.155 62.155 0 10-50.615 98.2c6.035 0 7.455-19.54 23.3-4.555z" fill="#fffffe"/><path d="M119.72 148.2l2.308 3.477 61.69-40.9-2.515-3.52a66.333 66.333 0 10-54.035 104.8v-1.77l-.008 1.77h.008v-1.77l-.008 1.77h.025a7.2 7.2 0 003.62-.994 12.834 12.834 0 003.626-3.418 53.89 53.89 0 013.46-4.488c1.09-1.07 1.62-1.287 2.34-1.3.87-.058 3.36.66 7.39 4.505l6.52-5.065-30.76-55.138-3.65 2.04 2.31 3.47-2.3-3.48-3.64 2.03 30.77 55.14 3.65-2.04 2.88-3.04c-4.74-4.47-8.83-6.75-13.13-6.8a10.856 10.856 0 00-6.87 2.5 30.99 30.99 0 00-5.25 6.15 9.983 9.983 0 01-1.35 1.58l-.11.08.3.46-.16-.51-.12.05.29.46-.17-.51.42 1.27v-1.33l-.42.06.42 1.27v-1.33h-.02a58 58 0 1147.23-91.59l3.4-2.43-2.3-3.49-61.31 40.65 1.89 3.38z" fill="#e68683"/><path d="M107.51 182.482c-16.123.568-19.533 5.617-19.533 5.617l-13.23 27.16s15.07-5.59 27.163-4.88 27.866 5.57 27.866 5.57l14.468-27.9s-20.62-6.15-36.734-5.59" fill="#e21b23"/><path d="M119.395 160.316l31.978 70.34a45.947 45.947 0 0010.657-4.972c5.683-3.552 9.946-11.367 9.946-11.367s-7.1-21.313-14.928-29.847c-7.815-8.517-17.05-12.788-21.313-17.77-4.263-4.964-11.375-9.226-11.375-9.226z" fill="#f9fafa"/><path d="M119.395 160.316l-3.8 1.73 33.466 73.61 3.46-.978a50.052 50.052 0 0011.75-5.45h-.01a32.09 32.09 0 008.25-8.073 46.372 46.372 0 003.15-4.84l.87-1.6-.58-1.715c-.02-.075-1.83-5.49-4.65-12.06-2.86-6.587-6.58-14.235-11.15-19.283a79.623 79.623 0 00-12.63-10.784c-3.87-2.766-7.06-5.048-8.59-6.887l-.01-.008.01.008c-4.96-5.725-12.23-9.962-12.4-10.1l-2.1-1.253-7.09 4.054-3.31 1.89 1.58 3.467 3.8-1.73 2.08 3.627 4.97-2.84-2.07-3.62-2.15 3.59.25.16c1.26.75 7 4.53 10.1 8.21v-.01c2.74 3.15 6.29 5.49 10.06 8.24a71.615 71.615 0 0111.36 9.66c3.25 3.48 7 10.75 9.64 16.95 1.34 3.11 2.44 5.98 3.21 8.06s1.19 3.33 1.19 3.34l3.97-1.32-3.67-2-.14.25c-.7 1.31-4.61 7.35-8.35 9.58a45.442 45.442 0 01-6.82 3.49c-.9.37-1.61.63-2.1.79l-.54.18-.13.04 1.15 4.02 3.8-1.73-31.96-70.34-3.8 1.73 2.08 3.63zM117.59 91.7s-31.25 7.1-41.924 35.17c-10.657 28.068 9.6 54 9.6 54l9.244-3.19s-22.037-25.94-11.38-52.58c8.19-20.452 38.02-32.32 38.02-32.32" fill="#ea6c51"/><path fill="#fff" d="M179.414 99.168l-71.052 49.03 3.544 10.656 76.033-17.06-8.53-42.626"/><path fill="#f4b098" d="M179.414 99.168l-2.373-3.434-73.63 50.8 5.73 17.226 83.71-18.78-10.56-52.857-5.23 3.61 2.38 3.435-4.09.82 7.72 38.622-68.37 15.337-1.35-4.095 68.47-47.24-2.37-3.444-4.09.82 4.09-.82"/><path d="M122.1 189.494a37.212 37.212 0 00-16.014-3.744c-9.06 0-13.24 4.438-13.24 4.438L88.6 197.76s7.046-6.27 13.314-7.572c7.4-1.546 20.193-.694 20.193-.694" fill="#e68683"/></svg>