<svg xmlns="http://www.w3.org/2000/svg" version="1.1" xmlns:xlink="http://www.w3.org/1999/xlink" xmlns:svgjs="http://svgjs.dev/svgjs" width="1500" height="1500" viewBox="0 0 1500 1500"><rect width="1500" height="1500" fill="#ffffff"></rect><g transform="matrix(0.6666666666666666,0,0,0.6666666666666666,250.0773287709676,211.43643724696352)"><svg viewBox="0 0 229 247" data-background-color="#ffffff" preserveAspectRatio="xMidYMid meet" height="1617" width="1500" xmlns="http://www.w3.org/2000/svg" xmlns:xlink="http://www.w3.org/1999/xlink"><g id="tight-bounds" transform="matrix(1,0,0,1,-0.01770828855157447,-0.09999999999999432)"><svg viewBox="0 0 229.03541657710315 247.2" height="247.2" width="229.03541657710315"><g><svg viewBox="0 0 397.4975999999999 429.02276070880487" height="247.2" width="229.03541657710315"><g><rect width="397.4975999999999" height="8.080596197038423" x="0" y="230.0071773813662" fill="#3d3839" opacity="1" stroke-width="0" stroke="transparent" fill-opacity="1" class="rect-qz-0" data-fill-palette-color="primary" rx="1%" id="qz-0" data-palette-color="#3d3839"></rect></g><g><rect width="397.4975999999999" height="8.080596197038423" x="0" y="248.66447017138685" fill="#3d3839" opacity="1" stroke-width="0" stroke="transparent" fill-opacity="1" class="rect-qz-1" data-fill-palette-color="primary" rx="1%" id="qz-1" data-palette-color="#3d3839"></rect></g><g transform="matrix(1,0,0,1,0.9887999999999693,277.8984595543897)"><svg viewBox="0 0 395.52 151.12430115441515" height="151.12430115441515" width="395.52"><g id="textblocktransform"><svg viewBox="0 0 395.52 151.12430115441515" height="151.12430115441515" width="395.52" id="textblock"><g><svg viewBox="0 0 395.52 89.60416639541697" height="89.60416639541697" width="395.52"><g transform="matrix(1,0,0,1,0,0)"><svg width="395.52" viewBox="2 -34.8 153.58999999577503 34.8" height="89.60416639541697" data-palette-color="#3d3839"><path d="M7.85 0L2.25 0Q2 0 2-0.25L2-0.25 2.1-34.6Q2.1-34.8 2.3-34.8L2.3-34.8 18.3-34.8Q18.55-34.8 18.55-34.6L18.55-34.6 18.55-28.95Q18.55-28.75 18.35-28.75L18.35-28.75 8.1-28.75 8.1-21 18.35-21Q18.55-21 18.55-20.75L18.55-20.75 18.6-15.1Q18.6-14.9 18.35-14.9L18.35-14.9 8.1-14.9 8.1-0.25Q8.1 0 7.85 0L7.85 0ZM29.45 0L23.8 0Q23.55 0 23.55-0.25L23.55-0.25 23.6-34.6Q23.6-34.8 23.8-34.8L23.8-34.8 29.4-34.8Q29.6-34.8 29.6-34.6L29.6-34.6 29.65-0.25Q29.65 0 29.45 0L29.45 0ZM39.5 0L34.5 0Q34.09 0 34.09-0.35L34.09-0.35 34.05-34.4Q34.05-34.8 34.45-34.8L34.45-34.8 38.95-34.8 47.4-15.1 47.15-34.4Q47.15-34.8 47.59-34.8L47.59-34.8 52.55-34.8Q52.84-34.8 52.84-34.4L52.84-34.4 52.9-0.3Q52.9 0 52.65 0L52.65 0 48.25 0 39.59-18.4 39.95-0.4Q39.95 0 39.5 0L39.5 0ZM55.54-0.25L55.54-0.25 61.74-34.6Q61.79-34.8 61.99-34.8L61.99-34.8 69.24-34.8Q69.44-34.8 69.49-34.6L69.49-34.6 75.44-0.25Q75.49 0 75.24 0L75.24 0 69.69 0Q69.49 0 69.44-0.25L69.44-0.25 68.89-3.9 62.09-3.9 61.54-0.25Q61.49 0 61.29 0L61.29 0 55.74 0Q55.54 0 55.54-0.25ZM65.34-23.3L63.09-9.25 67.89-9.25 65.84-23.3 65.54-25.15 65.34-23.3ZM84.04 0L79.04 0Q78.64 0 78.64-0.35L78.64-0.35 78.59-34.4Q78.59-34.8 78.99-34.8L78.99-34.8 83.49-34.8 91.94-15.1 91.69-34.4Q91.69-34.8 92.14-34.8L92.14-34.8 97.09-34.8Q97.39-34.8 97.39-34.4L97.39-34.4 97.44-0.3Q97.44 0 97.19 0L97.19 0 92.79 0 84.14-18.4 84.49-0.4Q84.49 0 84.04 0L84.04 0ZM119.09 0L100.44 0Q100.19 0 100.19-0.25L100.19-0.25 100.24-5.7 112.49-29.1 100.89-29.1Q100.69-29.1 100.69-29.3L100.69-29.3 100.69-34.55Q100.69-34.8 100.89-34.8L100.89-34.8 118.99-34.8Q119.24-34.8 119.24-34.55L119.24-34.55 119.24-29.15 107.04-5.85 119.09-5.85Q119.29-5.85 119.29-5.6L119.29-5.6 119.34-0.25Q119.34 0 119.09 0L119.09 0ZM138.84 0L122.69 0Q122.49 0 122.49-0.25L122.49-0.25 122.54-34.55Q122.54-34.8 122.79-34.8L122.79-34.8 128.34-34.8Q128.59-34.8 128.59-34.55L128.59-34.55 128.54-6.15 138.84-6.15Q139.09-6.15 139.09-5.9L139.09-5.9 139.09-0.25Q139.09 0 138.84 0L138.84 0ZM148.68 0L142.93 0Q142.78 0 142.78-0.2L142.78-0.2 142.83-14.4 136.13-34.6Q136.08-34.8 136.28-34.8L136.28-34.8 141.83-34.8Q142.08-34.8 142.13-34.6L142.13-34.6 145.83-21.15 149.58-34.6Q149.63-34.8 149.83-34.8L149.83-34.8 155.43-34.8Q155.63-34.8 155.58-34.6L155.58-34.6 148.83-14.6 148.88-0.2Q148.88 0 148.68 0L148.68 0Z" opacity="1" transform="matrix(1,0,0,1,0,0)" fill="#3d3839" class="wordmark-text-0" data-fill-palette-color="primary" id="text-0"></path></svg></g></svg></g><g transform="matrix(1,0,0,1,0,110.75755958138143)"><svg viewBox="0 0 395.52 40.36674157303371" height="40.36674157303371" width="395.52"><g transform="matrix(1,0,0,1,0,0)"><svg width="395.52" viewBox="3.83 -37.5 469.28000000000003 47.9" height="40.36674157303371" data-palette-color="#ffc604"><path d="M3.83-35.55L9.59-35.55 18.87-6.54 28.15-35.55 33.91-35.55 33.91 0 29.44 0 29.44-13.84 29.86-27.71 20.56 0 17.14 0 7.89-27.61 8.3-13.84 8.3 0 3.83 0 3.83-35.55ZM59.08 0L54.59 0Q54.2-0.85 54.03-2.88L54.03-2.88Q51.73 0.49 48.17 0.49L48.17 0.49Q44.58 0.49 42.56-1.53 40.55-3.54 40.55-7.2L40.55-7.2Q40.55-11.23 43.28-13.6 46.02-15.97 50.78-16.02L50.78-16.02 53.95-16.02 53.95-18.82Q53.95-21.19 52.9-22.19 51.85-23.19 49.7-23.19L49.7-23.19Q47.75-23.19 46.53-22.03 45.31-20.87 45.31-19.09L45.31-19.09 40.99-19.09Q40.99-21.12 42.19-22.96 43.38-24.8 45.41-25.85 47.43-26.9 49.92-26.9L49.92-26.9Q53.98-26.9 56.09-24.89 58.2-22.88 58.25-19.02L58.25-19.02 58.25-5.69Q58.27-2.64 59.08-0.39L59.08-0.39 59.08 0ZM48.83-3.44L48.83-3.44Q50.41-3.44 51.85-4.32 53.29-5.2 53.95-6.52L53.95-6.52 53.95-12.82 51.51-12.82Q48.44-12.77 46.65-11.44 44.87-10.11 44.87-7.71L44.87-7.71Q44.87-5.47 45.77-4.46 46.68-3.44 48.83-3.44ZM64.94-26.42L69.01-26.42 69.14-23.56Q71.65-26.9 75.56-26.9L75.56-26.9Q82.56-26.9 82.66-17.55L82.66-17.55 82.66 0 78.36 0 78.36-17.36Q78.36-20.46 77.33-21.77 76.29-23.07 74.21-23.07L74.21-23.07Q72.6-23.07 71.32-22 70.04-20.92 69.26-19.19L69.26-19.19 69.26 0 64.94 0 64.94-26.42ZM107.22 0L102.73 0Q102.34-0.85 102.17-2.88L102.17-2.88Q99.87 0.49 96.31 0.49L96.31 0.49Q92.72 0.49 90.7-1.53 88.69-3.54 88.69-7.2L88.69-7.2Q88.69-11.23 91.42-13.6 94.16-15.97 98.92-16.02L98.92-16.02 102.09-16.02 102.09-18.82Q102.09-21.19 101.04-22.19 99.99-23.19 97.84-23.19L97.84-23.19Q95.89-23.19 94.67-22.03 93.45-20.87 93.45-19.09L93.45-19.09 89.13-19.09Q89.13-21.12 90.32-22.96 91.52-24.8 93.55-25.85 95.57-26.9 98.06-26.9L98.06-26.9Q102.12-26.9 104.23-24.89 106.34-22.88 106.39-19.02L106.39-19.02 106.39-5.69Q106.41-2.64 107.22-0.39L107.22-0.39 107.22 0ZM96.97-3.44L96.97-3.44Q98.55-3.44 99.99-4.32 101.43-5.2 102.09-6.52L102.09-6.52 102.09-12.82 99.65-12.82Q96.57-12.77 94.79-11.44 93.01-10.11 93.01-7.71L93.01-7.71Q93.01-5.47 93.91-4.46 94.82-3.44 96.97-3.44ZM112.22-11.47L112.22-14.4Q112.22-20.58 114.47-23.74 116.71-26.9 121.03-26.9L121.03-26.9Q125.06-26.9 127.16-23.46L127.16-23.46 127.38-26.42 131.29-26.42 131.29 0.24Q131.29 5.15 128.77 7.78 126.26 10.4 121.77 10.4L121.77 10.4Q119.81 10.4 117.39 9.44 114.96 8.47 113.74 7.06L113.74 7.06 115.49 4.08Q118.18 6.71 121.43 6.71L121.43 6.71Q126.82 6.71 126.97 0.83L126.97 0.83 126.97-2.61Q124.87 0.49 121.01 0.49L121.01 0.49Q116.91 0.49 114.61-2.6 112.32-5.69 112.22-11.47L112.22-11.47ZM116.54-14.58L116.54-11.94Q116.54-7.5 117.85-5.41 119.16-3.32 122.13-3.32L122.13-3.32Q125.36-3.32 126.97-6.62L126.97-6.62 126.97-19.82Q125.28-23.07 122.18-23.07L122.18-23.07Q119.2-23.07 117.89-20.98 116.57-18.9 116.54-14.58L116.54-14.58ZM142.37-26.42L142.37 0 138.05 0 138.05-26.42 142.37-26.42ZM142.71-33.42L142.71-33.42Q142.71-32.32 142.1-31.59 141.49-30.86 140.25-30.86L140.25-30.86Q139.03-30.86 138.42-31.59 137.8-32.32 137.8-33.42 137.8-34.52 138.42-35.28 139.03-36.04 140.25-36.04 141.47-36.04 142.09-35.27 142.71-34.5 142.71-33.42ZM149.15-26.42L153.23-26.42 153.35-23.56Q155.87-26.9 159.78-26.9L159.78-26.9Q166.78-26.9 166.88-17.55L166.88-17.55 166.88 0 162.58 0 162.58-17.36Q162.58-20.46 161.55-21.77 160.51-23.07 158.43-23.07L158.43-23.07Q156.82-23.07 155.54-22 154.26-20.92 153.48-19.19L153.48-19.19 153.48 0 149.15 0 149.15-26.42ZM172.49-11.47L172.49-14.4Q172.49-20.58 174.74-23.74 176.98-26.9 181.31-26.9L181.31-26.9Q185.33-26.9 187.43-23.46L187.43-23.46 187.65-26.42 191.56-26.42 191.56 0.24Q191.56 5.15 189.05 7.78 186.53 10.4 182.04 10.4L182.04 10.4Q180.09 10.4 177.66 9.44 175.23 8.47 174.01 7.06L174.01 7.06 175.76 4.08Q178.45 6.71 181.7 6.71L181.7 6.71Q187.09 6.71 187.24 0.83L187.24 0.83 187.24-2.61Q185.14 0.49 181.28 0.49L181.28 0.49Q177.18 0.49 174.88-2.6 172.59-5.69 172.49-11.47L172.49-11.47ZM176.81-14.58L176.81-11.94Q176.81-7.5 178.12-5.41 179.43-3.32 182.4-3.32L182.4-3.32Q185.63-3.32 187.24-6.62L187.24-6.62 187.24-19.82Q185.55-23.07 182.45-23.07L182.45-23.07Q179.47-23.07 178.16-20.98 176.84-18.9 176.81-14.58L176.81-14.58ZM221.68-13.92L214.5-13.92 214.5 0 210.04 0 210.04-35.55 221.36-35.55Q226.32-35.55 229.15-32.58 231.98-29.61 231.98-24.68L231.98-24.68Q231.98-19.56 229.29-16.78 226.59-14.01 221.68-13.92L221.68-13.92ZM214.5-31.69L214.5-17.75 221.36-17.75Q224.34-17.75 225.93-19.53 227.52-21.31 227.52-24.63L227.52-24.63Q227.52-27.83 225.88-29.76 224.25-31.69 221.39-31.69L221.39-31.69 214.5-31.69ZM246.26 0.49L246.26 0.49Q241.33 0.49 238.7-2.45 236.06-5.4 236.01-11.08L236.01-11.08 236.01-14.28Q236.01-20.19 238.59-23.55 241.16-26.9 245.78-26.9L245.78-26.9Q250.41-26.9 252.71-23.95 255-21 255.05-14.75L255.05-14.75 255.05-11.91 240.31-11.91 240.31-11.3Q240.31-7.06 241.91-5.13 243.51-3.2 246.51-3.2L246.51-3.2Q248.41-3.2 249.87-3.92 251.32-4.64 252.59-6.2L252.59-6.2 254.83-3.47Q252.03 0.49 246.26 0.49ZM245.78-23.19L245.78-23.19Q243.09-23.19 241.8-21.35 240.5-19.51 240.33-15.63L240.33-15.63 250.73-15.63 250.73-16.21Q250.56-19.97 249.38-21.58 248.19-23.19 245.78-23.19ZM271.12-26.56L271.14-22.36Q270.24-22.53 269.19-22.53L269.19-22.53Q265.87-22.53 264.55-18.9L264.55-18.9 264.55 0 260.23 0 260.23-26.42 264.43-26.42 264.5-23.73Q266.23-26.9 269.41-26.9L269.41-26.9Q270.43-26.9 271.12-26.56L271.12-26.56ZM288.28-6.76L288.28-6.76Q288.28-8.15 287.23-9.16 286.18-10.16 283.17-11.5L283.17-11.5Q279.68-12.94 278.25-13.96 276.83-14.99 276.12-16.3 275.41-17.6 275.41-19.41L275.41-19.41Q275.41-22.63 277.77-24.77 280.12-26.9 283.78-26.9L283.78-26.9Q287.64-26.9 289.98-24.66 292.33-22.41 292.33-18.9L292.33-18.9 288.03-18.9Q288.03-20.68 286.84-21.94 285.64-23.19 283.78-23.19L283.78-23.19Q281.88-23.19 280.79-22.2 279.71-21.22 279.71-19.56L279.71-19.56Q279.71-18.24 280.5-17.43 281.29-16.63 284.32-15.31L284.32-15.31Q289.13-13.43 290.86-11.63 292.6-9.84 292.6-7.08L292.6-7.08Q292.6-3.64 290.23-1.57 287.86 0.49 283.88 0.49L283.88 0.49Q279.76 0.49 277.19-1.88 274.63-4.25 274.63-7.89L274.63-7.89 278.97-7.89Q279.05-5.69 280.32-4.44 281.59-3.2 283.88-3.2L283.88-3.2Q286.03-3.2 287.15-4.16 288.28-5.13 288.28-6.76ZM297.31-11.55L297.31-14.43Q297.31-20.19 300.1-23.55 302.9-26.9 307.49-26.9 312.08-26.9 314.87-23.63 317.67-20.36 317.74-14.72L317.74-14.72 317.74-11.94Q317.74-6.2 314.96-2.86 312.17 0.49 307.54 0.49L307.54 0.49Q302.95 0.49 300.18-2.76 297.4-6.01 297.31-11.55L297.31-11.55ZM301.63-14.45L301.63-11.94Q301.63-7.86 303.23-5.53 304.83-3.2 307.54-3.2L307.54-3.2Q313.25-3.2 313.42-11.45L313.42-11.45 313.42-14.43Q313.42-18.48 311.81-20.84 310.2-23.19 307.49-23.19L307.49-23.19Q304.83-23.19 303.23-20.84 301.63-18.48 301.63-14.45L301.63-14.45ZM323.3-26.42L327.38-26.42 327.5-23.56Q330.02-26.9 333.92-26.9L333.92-26.9Q340.93-26.9 341.03-17.55L341.03-17.55 341.03 0 336.73 0 336.73-17.36Q336.73-20.46 335.69-21.77 334.66-23.07 332.58-23.07L332.58-23.07Q330.97-23.07 329.69-22 328.41-20.92 327.63-19.19L327.63-19.19 327.63 0 323.3 0 323.3-26.42ZM365.59 0L361.1 0Q360.7-0.85 360.53-2.88L360.53-2.88Q358.24 0.49 354.67 0.49L354.67 0.49Q351.09 0.49 349.07-1.53 347.06-3.54 347.06-7.2L347.06-7.2Q347.06-11.23 349.79-13.6 352.53-15.97 357.29-16.02L357.29-16.02 360.46-16.02 360.46-18.82Q360.46-21.19 359.41-22.19 358.36-23.19 356.21-23.19L356.21-23.19Q354.26-23.19 353.04-22.03 351.82-20.87 351.82-19.09L351.82-19.09 347.5-19.09Q347.5-21.12 348.69-22.96 349.89-24.8 351.92-25.85 353.94-26.9 356.43-26.9L356.43-26.9Q360.48-26.9 362.6-24.89 364.71-22.88 364.76-19.02L364.76-19.02 364.76-5.69Q364.78-2.64 365.59-0.39L365.59-0.39 365.59 0ZM355.33-3.44L355.33-3.44Q356.92-3.44 358.36-4.32 359.8-5.2 360.46-6.52L360.46-6.52 360.46-12.82 358.02-12.82Q354.94-12.77 353.16-11.44 351.38-10.11 351.38-7.71L351.38-7.71Q351.38-5.47 352.28-4.46 353.19-3.44 355.33-3.44ZM376.11-37.5L376.11 0 371.79 0 371.79-37.5 376.11-37.5ZM405.42 0L394.95 0 394.95-35.55 405.08-35.55Q409.94-35.55 412.39-33.18 414.85-30.81 414.85-26.07L414.85-26.07Q414.85-23.58 413.6-21.68 412.36-19.78 410.23-18.73L410.23-18.73Q412.67-17.99 414.1-15.72 415.53-13.45 415.53-10.25L415.53-10.25Q415.53-5.47 412.91-2.73 410.28 0 405.42 0L405.42 0ZM405.62-16.63L399.42-16.63 399.42-3.83 405.52-3.83Q408.06-3.83 409.55-5.51 411.04-7.18 411.04-10.21L411.04-10.21Q411.04-16.63 405.62-16.63L405.62-16.63ZM399.42-31.69L399.42-20.39 405.16-20.39Q407.47-20.39 408.9-21.95 410.33-23.51 410.33-26.1L410.33-26.1Q410.33-29.03 409.04-30.36 407.74-31.69 405.08-31.69L405.08-31.69 399.42-31.69ZM426.27-26.42L426.27 0 421.95 0 421.95-26.42 426.27-26.42ZM426.61-33.42L426.61-33.42Q426.61-32.32 426-31.59 425.39-30.86 424.15-30.86L424.15-30.86Q422.93-30.86 422.32-31.59 421.71-32.32 421.71-33.42 421.71-34.52 422.32-35.28 422.93-36.04 424.15-36.04 425.37-36.04 425.99-35.27 426.61-34.5 426.61-33.42ZM437.72-37.5L437.72 0 433.4 0 433.4-37.5 437.72-37.5ZM449.17-37.5L449.17 0 444.84 0 444.84-37.5 449.17-37.5ZM468.79-6.76L468.79-6.76Q468.79-8.15 467.74-9.16 466.69-10.16 463.69-11.5L463.69-11.5Q460.2-12.94 458.77-13.96 457.34-14.99 456.63-16.3 455.93-17.6 455.93-19.41L455.93-19.41Q455.93-22.63 458.28-24.77 460.64-26.9 464.3-26.9L464.3-26.9Q468.16-26.9 470.5-24.66 472.85-22.41 472.85-18.9L472.85-18.9 468.55-18.9Q468.55-20.68 467.35-21.94 466.16-23.19 464.3-23.19L464.3-23.19Q462.4-23.19 461.31-22.2 460.22-21.22 460.22-19.56L460.22-19.56Q460.22-18.24 461.02-17.43 461.81-16.63 464.84-15.31L464.84-15.31Q469.65-13.43 471.38-11.63 473.11-9.84 473.11-7.08L473.11-7.08Q473.11-3.64 470.75-1.57 468.38 0.49 464.4 0.49L464.4 0.49Q460.27 0.49 457.71-1.88 455.15-4.25 455.15-7.89L455.15-7.89 459.49-7.89Q459.56-5.69 460.83-4.44 462.1-3.2 464.4-3.2L464.4-3.2Q466.55-3.2 467.67-4.16 468.79-5.13 468.79-6.76Z" opacity="1" transform="matrix(1,0,0,1,0,0)" fill="#ffc604" class="slogan-text-1" data-fill-palette-color="secondary" id="text-1"></path></svg></g></svg></g></svg></g></svg></g><g transform="matrix(1,0,0,1,97.7424303079765,0)"><svg viewBox="0 0 202.0127393840469 208.85378419540174" height="208.85378419540174" width="202.0127393840469"><g><svg xmlns="http://www.w3.org/2000/svg" xmlns:xlink="http://www.w3.org/1999/xlink" version="1.1" x="0" y="0" viewBox="1.5274706178553634 0 96.19152938214465 99.44900000000001" enable-background="new 0 0 100 100" xml:space="preserve" height="208.85378419540174" width="202.0127393840469" class="icon-icon-0" data-fill-palette-color="accent" id="icon-0"><path fill-rule="evenodd" clip-rule="evenodd" d="M71.567 15.476L59.975 0 19.417 29.243H35.77L71.567 15.476zM82.479 29.243l-4.625-12.508L43.142 29.243H82.479zM84.913 27.716h6.64c1.899 0 3.121 1.48 3.121 3.373v21.198l2.992-1.495-0.03-21.297c0-1.9-2.656-4.831-4.556-4.831h-9.379l1.06 2.854L84.913 27.716zM94.674 76.706v17.43c1.732-0.184 3.045-1.739 3.045-3.518l-0.023-15.423L94.674 76.706zM7.939 27.716h0.435 8.349l4.258-3.052h-9.966l0.069-0.023c-7.372-0.007-9.624 0.077-9.555 9.249v62.04c0 1.901 1.893 3.519 3.793 3.519h83.179c1.899 0 3.808-1.565 3.808-3.457l-0.007-16.566-0.367 0.183h-7.631c-6.746 0-12.211-5.464-12.211-12.21s5.465-12.209 12.211-12.209h7.631l0.358-0.184-0.008-20.788c0-1.9-1.885-3.449-3.784-3.449H11.008c-0.275-0.007-0.528-0.023-0.756-0.061H8.374c-0.839 0-1.526-0.688-1.526-1.526C6.848 28.486 7.306 27.899 7.939 27.716zM91.935 58.24h-7.631c-5.061 0-9.158 4.098-9.158 9.157 0 5.059 4.098 9.157 9.158 9.157h7.631l5.738-4.815L97.65 53.547 91.935 58.24zM79.725 67.397c0-2.525 2.053-4.577 4.579-4.577 2.525 0 4.578 2.052 4.578 4.577 0 2.526-2.053 4.579-4.578 4.579C81.777 71.977 79.725 69.924 79.725 67.397z" fill="#ffc604" data-fill-palette-color="accent"></path></svg></g></svg></g><g></g></svg></g><defs></defs></svg><rect width="229.03541657710315" height="247.2" fill="none" stroke="none" visibility="hidden"></rect></g></svg></g></svg>