<svg width="32" height="33" viewBox="0 0 32 33" fill="none" xmlns="http://www.w3.org/2000/svg">
<g id="mingcute:github-fill" clip-path="url(#clip0_14_23)">
<g id="Group">
<path id="Vector" d="M9.36535 3.58C10.3666 3.91918 11.3192 4.38806 12.1987 4.97466C13.4408 4.65721 14.718 4.49773 16 4.5C17.324 4.5 18.6014 4.66533 19.7987 4.97333C20.6778 4.3873 21.6299 3.91887 22.6307 3.58C23.56 3.264 24.884 2.752 25.6707 3.62266C26.204 4.21466 26.3374 5.20666 26.432 5.964C26.5387 6.80933 26.564 7.91066 26.284 9.004C27.3547 10.3867 28 12.036 28 13.8333C28 16.556 26.5254 18.92 24.3427 20.5573C23.2923 21.3354 22.1272 21.9453 20.8894 22.3653C21.1747 23.0187 21.3334 23.7413 21.3334 24.5V28.5C21.3334 28.8536 21.1929 29.1928 20.9428 29.4428C20.6928 29.6929 20.3536 29.8333 20 29.8333H12C11.6464 29.8333 11.3073 29.6929 11.0572 29.4428C10.8072 29.1928 10.6667 28.8536 10.6667 28.5V27.1787C9.39335 27.3347 8.32535 27.196 7.41735 26.8107C6.46802 26.408 5.80669 25.784 5.30935 25.1867C4.83735 24.6213 4.32269 23.3467 3.57869 23.0987C3.41252 23.0433 3.25888 22.9558 3.12654 22.8411C2.99419 22.7264 2.88574 22.5868 2.80737 22.4301C2.64909 22.1138 2.62294 21.7476 2.73469 21.412C2.84643 21.0764 3.08691 20.799 3.40322 20.6407C3.71953 20.4824 4.08577 20.4563 4.42135 20.568C5.30935 20.864 5.88802 21.504 6.28402 22.0187C6.92402 22.8453 7.44402 23.9253 8.45735 24.356C8.87469 24.5333 9.48669 24.6493 10.444 24.5187L10.6667 24.4733C10.6692 23.7477 10.8203 23.0303 11.1107 22.3653C9.8728 21.9453 8.70777 21.3354 7.65735 20.5573C5.47469 18.92 4.00002 16.5573 4.00002 13.8333C4.00002 12.0387 4.64402 10.3907 5.71202 9.00933C5.43202 7.916 5.45602 6.812 5.56269 5.96533L5.56935 5.91466C5.66669 5.13866 5.78002 4.22533 6.32402 3.62266C7.11069 2.752 8.43602 3.26533 9.36402 3.58133L9.36535 3.58Z" fill="black"/>
</g>
</g>
<defs>
<clipPath id="clip0_14_23">
<rect width="32" height="32" fill="white" transform="translate(0 0.5)"/>
</clipPath>
</defs>
</svg>
