<svg width="32" height="33" viewBox="0 0 32 33" fill="none" xmlns="http://www.w3.org/2000/svg">
<g id="ri:linkedin-fill-white">
<path id="Vector" d="M9.25332 7.16667C9.25296 7.87392 8.97167 8.55205 8.47132 9.0519C7.97098 9.55175 7.29256 9.83236 6.58532 9.83201C5.87807 9.83165 5.19994 9.55036 4.70009 9.05001C4.20024 8.54967 3.91963 7.87125 3.91998 7.16401C3.92034 6.45676 4.20163 5.77863 4.70197 5.27878C5.20232 4.77893 5.88074 4.49832 6.58798 4.49867C7.29523 4.49903 7.97336 4.78032 8.47321 5.28066C8.97306 5.78101 9.25367 6.45943 9.25332 7.16667ZM9.33332 11.8067H3.99998V28.5H9.33332V11.8067ZM17.76 11.8067H12.4533V28.5H17.7066V19.74C17.7066 14.86 24.0666 14.4067 24.0666 19.74V28.5H29.3333V17.9267C29.3333 9.70001 19.92 10.0067 17.7066 14.0467L17.76 11.8067Z" fill="white"/>
</g>
</svg>
